name ./resultDataOpenSim/trcMotMarkerGrf/sub10/grf-03-06.mot
datacolumns 19
datarows 15
range 1.51200000 1.56800000
endheader

                time	     ground_force_vx	     ground_force_vy	     ground_force_vz	     ground_force_px	     ground_force_py	     ground_force_pz	   l_ground_force_vx	   l_ground_force_vy	   l_ground_force_vz	   l_ground_force_px	   l_ground_force_py	   l_ground_force_pz	     ground_torque_x	     ground_torque_y	     ground_torque_z	   l_ground_torque_x	   l_ground_torque_y	   l_ground_torque_z	
          1.51200000	        -19.54531084	        392.55784363	        -24.57577990	          0.77497377	          0.00000000	          0.05276224	          0.00000000	          0.00000000	          0.00000000	          0.00000000	          0.00000000	          0.00000000	          0.00000000	          1.98517105	          0.00000000	          0.00000000	          0.00000000	          0.00000000	
          1.51600000	        -16.17496410	        388.12425181	        -23.38305983	          0.77629240	          0.00000000	          0.05274574	          0.00000000	          0.00000000	          0.00000000	          0.00000000	          0.00000000	          0.00000000	          0.00000000	          1.94840858	          0.00000000	          0.00000000	          0.00000000	          0.00000000	
          1.52000000	        -13.02714060	        384.47318253	        -22.35825838	          0.77757078	          0.00000000	          0.05266851	          0.00000000	          0.00000000	          0.00000000	          0.00000000	          0.00000000	          0.00000000	          0.00000000	          1.95218443	          0.00000000	          0.00000000	          0.00000000	          0.00000000	
          1.52400000	        -10.56929484	        381.64736609	        -21.58637410	          0.77891328	          0.00000000	          0.05250362	          0.00000000	          0.00000000	          0.00000000	          0.00000000	          0.00000000	          0.00000000	          0.00000000	          2.00970599	          0.00000000	          0.00000000	          0.00000000	          0.00000000	
          1.52800000	         -9.08677083	        379.67643338	        -21.06845444	          0.78038821	          0.00000000	          0.05222858	          0.00000000	          0.00000000	          0.00000000	          0.00000000	          0.00000000	          0.00000000	          0.00000000	          2.12341263	          0.00000000	          0.00000000	          0.00000000	          0.00000000	
          1.53200000	         -8.61543429	        378.54371699	        -20.71937413	          0.78200279	          0.00000000	          0.05184679	          0.00000000	          0.00000000	          0.00000000	          0.00000000	          0.00000000	          0.00000000	          0.00000000	          2.28417020	          0.00000000	          0.00000000	          0.00000000	          0.00000000	
          1.53600000	         -8.94816205	        378.17339700	        -20.39240997	          0.78370224	          0.00000000	          0.05138870	          0.00000000	          0.00000000	          0.00000000	          0.00000000	          0.00000000	          0.00000000	          0.00000000	          2.47270944	          0.00000000	          0.00000000	          0.00000000	          0.00000000	
          1.54000000	         -9.69764508	        378.45277191	        -19.92499920	          0.78539110	          0.00000000	          0.05089344	          0.00000000	          0.00000000	          0.00000000	          0.00000000	          0.00000000	          0.00000000	          0.00000000	          2.66336594	          0.00000000	          0.00000000	          0.00000000	          0.00000000	
          1.54400000	        -10.39720461	        379.26788774	        -19.18908078	          0.78697689	          0.00000000	          0.05039372	          0.00000000	          0.00000000	          0.00000000	          0.00000000	          0.00000000	          0.00000000	          0.00000000	          2.82964995	          0.00000000	          0.00000000	          0.00000000	          0.00000000	
          1.54800000	        -10.62246278	        380.52334372	        -18.12979577	          0.78838241	          0.00000000	          0.04991669	          0.00000000	          0.00000000	          0.00000000	          0.00000000	          0.00000000	          0.00000000	          0.00000000	          2.95043411	          0.00000000	          0.00000000	          0.00000000	          0.00000000	
          1.55200000	        -10.10231966	        382.13897339	        -16.78669104	          0.78955624	          0.00000000	          0.04949396	          0.00000000	          0.00000000	          0.00000000	          0.00000000	          0.00000000	          0.00000000	          0.00000000	          3.01504989	          0.00000000	          0.00000000	          0.00000000	          0.00000000	
          1.55600000	         -8.78073181	        384.04535315	        -15.29496038	          0.79049291	          0.00000000	          0.04915907	          0.00000000	          0.00000000	          0.00000000	          0.00000000	          0.00000000	          0.00000000	          0.00000000	          3.02572832	          0.00000000	          0.00000000	          0.00000000	          0.00000000	
          1.56000000	         -6.81247516	        386.19988008	        -13.86502616	          0.79123084	          0.00000000	          0.04893247	          0.00000000	          0.00000000	          0.00000000	          0.00000000	          0.00000000	          0.00000000	          0.00000000	          2.99664857	          0.00000000	          0.00000000	          0.00000000	          0.00000000	
          1.56400000	         -4.50329864	        388.61106431	        -12.74360396	          0.79184102	          0.00000000	          0.04881648	          0.00000000	          0.00000000	          0.00000000	          0.00000000	          0.00000000	          0.00000000	          0.00000000	          2.95000097	          0.00000000	          0.00000000	          0.00000000	          0.00000000	
          1.56800000	         -2.21350084	        391.34522987	        -12.16416225	          0.79241287	          0.00000000	          0.04880047	          0.00000000	          0.00000000	          0.00000000	          0.00000000	          0.00000000	          0.00000000	          0.00000000	          2.91038143	          0.00000000	          0.00000000	          0.00000000	          0.00000000	
